<?xml version="1.0" encoding="UTF-8"?>
<svg version="1.1" xmlns="http://www.w3.org/2000/svg" width="1836" height="559">
<path d="M0 0 C605.88 0 1211.76 0 1836 0 C1836 184.47 1836 368.94 1836 559 C1230.12 559 624.24 559 0 559 C0 374.53 0 190.06 0 0 Z " fill="#FFFEFE" transform="translate(0,0)"/>
<path d="M0 0 C0.11672493 22.87840482 0.20493505 45.75676066 0.25906086 68.63540268 C0.28485876 79.25801284 0.32003964 89.88043816 0.37719727 100.50292969 C0.42698361 109.75990299 0.45927947 119.01674245 0.47044247 128.27384591 C0.47696932 133.17693157 0.49234213 138.07963426 0.52865028 142.98259735 C0.56253446 147.59551293 0.57306835 152.20788702 0.56553841 156.82091522 C0.56691636 158.51567526 0.57689413 160.210453 0.59602737 161.90510559 C0.62084861 164.21651998 0.61494733 166.525881 0.60127258 168.83734131 C0.60588155 170.13153866 0.61049051 171.42573601 0.61523914 172.75915146 C0 176 0 176 -2.32401752 178.34430313 C-5.52617755 180.32555913 -8.82487903 181.84476346 -12.296875 183.2734375 C-13.7332122 183.88323293 -15.16873719 184.49494441 -16.60351562 185.10839844 C-17.33449463 185.42015015 -18.06547363 185.73190186 -18.81860352 186.05310059 C-22.25000439 187.54260124 -25.63401967 189.1278412 -29.015625 190.7265625 C-29.68068054 191.04056 -30.34573608 191.3545575 -31.03094482 191.67807007 C-32.3992901 192.32523938 -33.76726718 192.97318771 -35.1348877 193.62188721 C-38.83756544 195.37791851 -42.54400386 197.12598577 -46.25 198.875 C-47.36595551 199.40197983 -47.36595551 199.40197983 -48.50445557 199.93960571 C-55.40637269 203.19681694 -62.3251037 206.41690642 -69.25 209.625 C-77.9585469 213.66001982 -86.66170946 217.70609146 -95.35696411 221.76968384 C-109.74339575 228.49173041 -124.1344034 235.20460324 -138.55322266 241.85693359 C-139.84560349 242.45320557 -139.84560349 242.45320557 -141.16409302 243.06152344 C-142.8952117 243.86016076 -144.62639231 244.65866387 -146.3576355 245.45703125 C-151.35760979 247.76658129 -156.34381584 250.10280617 -161.31855774 252.46620178 C-164.34917045 253.90317206 -167.38658205 255.32534876 -170.42538452 256.74490356 C-171.83314441 257.4069803 -173.23773978 258.07583443 -174.63882446 258.75192261 C-176.56515059 259.6806572 -178.5013114 260.58484003 -180.44140625 261.484375 C-181.52107666 261.99709961 -182.60074707 262.50982422 -183.71313477 263.03808594 C-190.47995721 265.01842319 -195.91013579 262.9166261 -202.0859375 260.04296875 C-202.73622421 259.74416306 -203.38651093 259.44535736 -204.0565033 259.13749695 C-206.16762248 258.16448158 -208.27117983 257.17618442 -210.375 256.1875 C-211.85654313 255.50109652 -213.33856468 254.81572483 -214.82104492 254.13134766 C-217.81070765 252.74918835 -220.79747815 251.3610704 -223.78173828 249.96728516 C-227.50351217 248.22951848 -231.23235698 246.50762936 -234.96484375 244.79296875 C-241.3159583 241.87500643 -247.65897586 238.93981554 -254 236 C-255.10585449 235.48759766 -256.21170898 234.97519531 -257.35107422 234.44726562 C-270.53435449 228.33752821 -283.7081695 222.20759038 -296.875 216.0625 C-297.80939407 215.62648972 -297.80939407 215.62648972 -298.76266479 215.18167114 C-305.02930522 212.25740073 -311.29512687 209.33142277 -317.5566864 206.39628601 C-320.02489288 205.23946918 -322.49360336 204.08373134 -324.9624939 202.92837524 C-326.19084456 202.35345907 -327.41905623 201.77824582 -328.64712524 201.20272827 C-336.08757638 197.71772526 -343.55067973 194.2893321 -351.046875 190.92578125 C-352.17865425 190.41667961 -352.17865425 190.41667961 -353.33329773 189.89729309 C-357.00256714 188.24687323 -360.67461015 186.60338259 -364.3527832 184.97290039 C-365.68454902 184.37547803 -367.0161803 183.77775562 -368.34765625 183.1796875 C-369.51304932 182.66132324 -370.67844238 182.14295898 -371.87915039 181.60888672 C-375.09740781 179.9497835 -377.43758707 178.56483209 -380 176 C-380.61523914 172.77476883 -380.61523914 172.77476883 -380.60127258 168.87530518 C-380.60554471 168.15726581 -380.60981683 167.43922645 -380.61421841 166.69942832 C-380.6224561 164.2927998 -380.59495351 161.88791327 -380.56762695 159.48144531 C-380.56621664 157.75673972 -380.56700814 156.03203112 -380.56983948 154.30732727 C-380.57127569 149.62356682 -380.54185285 144.94044495 -380.50696969 140.25683308 C-380.4757403 135.36280354 -380.47277815 130.4687598 -380.46684265 125.574646 C-380.45129415 116.30627918 -380.41025205 107.03820679 -380.3600952 97.7699697 C-380.30423306 87.21872872 -380.27672311 76.66747378 -380.25161803 66.11612177 C-380.19933711 44.41058343 -380.11137523 22.70531025 -380 1 C-375.53901827 1.67334662 -372.10687741 2.69359213 -368.0546875 4.703125 C-366.3382605 5.54496338 -366.3382605 5.54496338 -364.5871582 6.40380859 C-363.68182846 6.85418488 -363.68182846 6.85418488 -362.75820923 7.31365967 C-359.50449373 8.93142205 -356.23768659 10.52242042 -352.97265625 12.1171875 C-352.30346664 12.44486115 -351.63427704 12.77253479 -350.94480896 13.11013794 C-344.44211063 16.28826926 -337.88504735 19.34415098 -331.3125 22.375 C-321.58372419 26.86818195 -311.87496113 31.40050565 -302.18231201 35.97097778 C-287.75748049 42.77269634 -273.31587642 49.53598889 -258.83837891 56.22509766 C-256.09467317 57.4930447 -253.35241102 58.76406539 -250.61083984 60.03662109 C-239.7616629 65.07109205 -228.89555122 70.06663043 -218 75 C-217.31719971 75.30969727 -216.63439941 75.61939453 -215.9309082 75.93847656 C-211.67566186 77.86526292 -207.40576602 79.75537529 -203.125 81.625 C-202.08649902 82.09244629 -201.04799805 82.55989258 -199.97802734 83.04150391 C-193.23765805 85.93346756 -189.31843509 86.69307599 -182.29492188 83.93945312 C-178.89266835 82.50502394 -175.54079006 80.98290767 -172.1875 79.4375 C-170.91177806 78.85689789 -169.63581173 78.2768325 -168.35961914 77.69726562 C-155.61850442 71.89222424 -142.96104837 65.9048818 -130.3046875 59.91796875 C-122.74293672 56.3411616 -115.15642999 52.82043471 -107.5625 49.3125 C-98.50169867 45.12217699 -89.48567614 40.8490204 -80.5 36.5 C-67.92822771 30.41602967 -55.27535055 24.51868493 -42.59521484 18.66455078 C-38.8472704 16.92928762 -35.10465709 15.18295429 -31.36328125 13.43359375 C-29.47517057 12.55206797 -27.58695339 11.67077073 -25.69869995 10.78955078 C-23.93512666 9.96559177 -22.17274186 9.13909043 -20.41040039 8.3125 C-2.57844866 0 -2.57844866 0 0 0 Z " fill="#FFFEFE" transform="translate(486,219)"/>
<path d="M0 0 C4.46098173 0.67334662 7.89312259 1.69359213 11.9453125 3.703125 C13.09008057 4.26459229 14.23484863 4.82605957 15.41430664 5.40454102 C16.01792023 5.70482208 16.62153381 6.00510315 17.24343872 6.31448364 C20.48878694 7.92807783 23.74724234 9.51487241 27.00390625 11.10546875 C27.67185715 11.43252304 28.33980804 11.75957733 29.02799988 12.09654236 C35.66549411 15.34058437 42.3555855 18.46437008 49.0625 21.5625 C50.22128662 22.0982666 51.38007324 22.6340332 52.57397461 23.18603516 C54.90677458 24.26380982 57.23986182 25.34096293 59.57324219 26.41748047 C65.11577122 28.97708956 70.65122767 31.5518939 76.1875 34.125 C84.37371367 37.92748071 92.56254398 41.72424933 100.75390625 45.515625 C118.10120462 53.54582475 135.43936394 61.5937844 152.74169922 69.72045898 C162.22760296 74.17505482 171.72989384 78.59341024 181.24047852 82.99511719 C187.84751256 86.05763743 194.44076403 89.1472508 201.0234375 92.26171875 C201.79086273 92.62444382 202.55828796 92.98716888 203.34896851 93.36088562 C207.11195861 95.13959839 210.87344327 96.92136005 214.63232422 98.70874023 C216.01002629 99.3606514 217.38779029 100.01243172 218.765625 100.6640625 C219.37908783 100.95725876 219.99255066 101.25045502 220.62460327 101.55253601 C229.90595053 106.18361781 229.90595053 106.18361781 240 107 C242.45712922 106.1101401 244.7018157 105.18206734 247.046875 104.0625 C247.72260056 103.75097488 248.39832611 103.43944977 249.0945282 103.1184845 C251.31825776 102.08987085 253.53399317 101.0451343 255.75 100 C257.31475138 99.27209655 258.87994452 98.54514207 260.44555664 97.8190918 C264.50621477 95.93207324 268.56000079 94.03079056 272.61138916 92.1239624 C274.91241383 91.04121373 277.21452583 89.9608183 279.51708984 88.88134766 C285.96245746 85.85903589 292.40432902 82.82944969 298.84112549 79.78892517 C306.83661929 76.01232009 314.8496544 72.27534705 322.875 68.5625 C333.56608839 63.61350953 344.22544852 58.60008674 354.875 53.5625 C369.08000363 46.84339101 383.30566616 40.17059422 397.55168152 33.53892517 C401.80400386 31.55887431 406.05308331 29.57198078 410.30078125 27.58203125 C417.16320211 24.36781616 424.03183075 21.16711213 430.90423584 17.9743042 C433.14587984 16.93218162 435.38665955 15.88821324 437.62744141 14.84423828 C441.63169668 12.97986886 445.63987252 11.12414596 449.65054321 9.27362061 C451.20361795 8.55565615 452.7555426 7.83519806 454.3062439 7.11212158 C456.4718664 6.10296626 458.64158356 5.10317417 460.8125 4.10546875 C461.45181961 3.80512222 462.09113922 3.5047757 462.74983215 3.19532776 C466.67714411 1.40503607 469.59719369 0.73380105 474 0 C474 92.4 474 184.8 474 280 C453.19224746 290.40387627 432.30417429 300.47691857 411.11230469 310.05859375 C380.86961202 323.73348188 350.75954822 337.715292 320.75 351.89453125 C303.12566882 360.21986834 285.46552228 368.4543653 267.68360901 376.43867493 C263.46647536 378.33332918 259.26427159 380.25820988 255.06640625 382.1953125 C253.00301381 383.13111211 250.93923906 384.06606939 248.875 385 C247.96339111 385.42780762 247.05178223 385.85561523 246.11254883 386.29638672 C240.09549447 388.98071545 236.31652333 389.52527326 229.92724609 387.26757812 C227.50322696 386.32504979 225.12876366 385.30149572 222.75 384.25 C221.38633301 383.65662842 221.38633301 383.65662842 219.99511719 383.05126953 C211.50546513 379.31222217 203.16699946 375.26948086 194.82788086 371.20849609 C186.05370547 366.94892763 177.2052248 362.88033763 168.3125 358.875 C155.65629503 353.17074984 143.09211026 347.2895283 130.5625 341.3125 C116.44316028 334.57812107 102.29013361 327.93390161 88.07080078 321.41259766 C82.60159043 318.89670872 77.14559263 316.35239296 71.6875 313.8125 C61.26304194 308.96429379 50.8197903 304.15814737 40.36965942 299.36557007 C18.09225168 289.14748607 18.09225168 289.14748607 8.25 284.5 C7.49452881 284.14454102 6.73905762 283.78908203 5.96069336 283.42285156 C1.12438441 281.12438441 1.12438441 281.12438441 0 280 C-0.09679771 278.50392983 -0.12371741 277.00328663 -0.12304783 275.5040884 C-0.12503888 274.52674659 -0.12702993 273.54940478 -0.12908131 272.54244655 C-0.12616847 271.45589387 -0.12325563 270.36934119 -0.12025452 269.24986267 C-0.12110894 268.10561359 -0.12196337 266.9613645 -0.12284368 265.7824412 C-0.12421182 262.59224494 -0.12106454 259.40208877 -0.11606562 256.21189725 C-0.11176428 252.77698156 -0.11320732 249.34206789 -0.1139679 245.90715027 C-0.11449333 239.95123281 -0.11134448 233.99532626 -0.10573006 228.03941154 C-0.09761771 219.42806175 -0.09500011 210.81671726 -0.09374207 202.20536406 C-0.09155113 188.23545781 -0.08488991 174.26555738 -0.07543945 160.2956543 C-0.06626642 146.72176137 -0.05918505 133.14787001 -0.05493164 119.57397461 C-0.05466892 118.73787857 -0.05440619 117.90178253 -0.05413551 117.04035025 C-0.05283051 112.84608094 -0.05156679 108.65181163 -0.05032361 104.4575423 C-0.03994969 69.63835738 -0.02233024 34.81917923 0 0 Z M371.90351868 97.72290039 C363.98828944 101.48442925 356.05710428 105.21172668 348.125 108.9375 C339.26835908 113.09841261 330.41791887 117.27173213 321.58203125 121.4765625 C302.33570722 130.63274805 283.0491924 139.68045409 263.59472656 148.38720703 C260.22141796 149.90065967 256.85666117 151.43188391 253.4921875 152.96484375 C251.59960374 153.81134029 249.70642445 154.65650734 247.8125 155.5 C246.57487915 156.07053101 246.57487915 156.07053101 245.31225586 156.65258789 C239.73401472 159.09451626 236.59675048 159.32018206 230.76245117 157.17871094 C227.87782589 156.05059363 225.03351768 154.84729391 222.1875 153.625 C221.07729492 153.15167236 219.96708984 152.67834473 218.82324219 152.19067383 C201.84247372 144.86780285 185.12590709 136.94613781 168.37738037 129.11120605 C164.88502217 127.4788507 161.3898999 125.85245892 157.89453125 124.2265625 C144.91341084 118.18552475 131.95324338 112.10049867 119 106 C103.35036384 98.62987493 87.69053113 91.28273263 72 84 C70.88383301 83.48050781 69.76766602 82.96101563 68.61767578 82.42578125 C65.51885161 80.98580203 62.41644905 79.55389224 59.3125 78.125 C58.40338867 77.7017041 57.49427734 77.2784082 56.55761719 76.84228516 C55.73036133 76.46378418 54.90310547 76.0852832 54.05078125 75.6953125 C52.97824097 75.2005542 52.97824097 75.2005542 51.8840332 74.69580078 C49.8656999 73.8267784 49.8656999 73.8267784 47 74 C46.88327437 96.74802065 46.79506461 119.49599203 46.74093914 142.24425125 C46.71514138 152.80632784 46.6799608 163.36821851 46.62280273 173.93017578 C46.57301593 183.13441138 46.54072043 192.33851236 46.52955753 201.54287887 C46.52303076 206.41801982 46.50765845 211.2927756 46.47134972 216.16779327 C46.4374648 220.75444484 46.42693179 225.34055182 46.43446159 229.92731667 C46.43308368 231.61240153 46.42310632 233.29750421 46.40397263 234.982481 C46.37915018 237.28076197 46.38505304 239.576978 46.39872742 241.87530518 C46.39411845 243.16212818 46.38950949 244.44895119 46.38476086 245.77476883 C46.71615144 249.1635809 46.71615144 249.1635809 49.38070393 251.3609581 C51.9389887 252.96182178 54.44082372 254.31816443 57.19140625 255.55859375 C58.20332031 256.01975586 59.21523437 256.48091797 60.2578125 256.95605469 C61.34835938 257.44493164 62.43890625 257.93380859 63.5625 258.4375 C65.92858042 259.51389437 68.29445934 260.59073176 70.66015625 261.66796875 C71.89075094 262.22582992 73.12138255 262.78360967 74.35205078 263.34130859 C80.08401512 265.94294753 85.79170288 268.59693452 91.5 271.25 C93.22355713 272.04966187 93.22355713 272.04966187 94.98193359 272.86547852 C101.38676853 275.84093577 107.78225638 278.83528118 114.16796875 281.8515625 C114.86278351 282.17970947 115.55759827 282.50785645 116.27346802 282.84594727 C116.97406342 283.1768335 117.67465881 283.50771973 118.39648438 283.84863281 C131.73286241 290.14700101 145.10347957 296.35458272 158.5458374 302.42367554 C168.46562049 306.90391622 178.3253449 311.49724188 188.1578064 316.165802 C199.00671122 321.31006211 209.87343723 326.42193253 220.86434937 331.25698853 C222.63421562 332.03895769 224.39695725 332.83699076 226.15942383 333.63549805 C227.22443115 334.09738525 228.28943848 334.55927246 229.38671875 335.03515625 C230.76670044 335.64435913 230.76670044 335.64435913 232.17456055 336.26586914 C238.39109744 337.88110516 243.70683281 335.53651496 249.28515625 332.89453125 C249.96981461 332.57922455 250.65447296 332.26391785 251.35987854 331.9390564 C253.59823663 330.90557611 255.83029115 329.8591872 258.0625 328.8125 C259.6427036 328.07970215 261.22327565 327.34769837 262.80419922 326.61645508 C266.79849172 324.76618914 270.78769692 322.90525179 274.77508545 321.04016113 C278.0265451 319.5200839 281.2809607 318.00639893 284.53515625 316.4921875 C288.72118637 314.54240368 292.90536723 312.58875505 297.08750916 310.63064575 C303.62379782 307.57088077 310.16822971 304.52918182 316.71875 301.5 C317.56394699 301.10912704 318.40914398 300.71825409 319.279953 300.3155365 C321.01714902 299.51218267 322.75434692 298.7088329 324.49154663 297.90548706 C338.62554779 291.36843168 352.73734344 284.78786022 366.8125 278.125 C377.10344444 273.25476933 387.39546245 268.38743559 397.71640015 263.58099365 C399.41949793 262.78750657 401.12151944 261.99171066 402.82348633 261.19580078 C408.98869074 258.33117968 415.18826684 255.65828537 421.52148438 253.18457031 C424.10706172 251.94883142 425.3164508 251.29716492 427 249 C427.44716841 245.75589601 427.44716841 245.75589601 427.36076355 241.95759583 C427.36332682 241.23632734 427.3658901 240.51505885 427.36853105 239.77193373 C427.37348275 237.34878822 427.35695372 234.92626219 427.34057617 232.50317383 C427.3397302 230.76876337 427.34020446 229.03435184 427.34190369 227.29994202 C427.34276622 222.58530034 427.32509874 217.87088653 427.30418181 213.15629792 C427.28545798 208.23154489 427.28366797 203.30678692 427.28010559 198.38200378 C427.27077248 189.05348739 427.24614159 179.72507618 427.21605712 170.39660615 C427.18255247 159.77764823 427.16603701 149.15868535 427.15097082 138.53968775 C427.11959313 116.69306641 427.06680806 94.84653982 427 73 C411.46995865 73 386.09965597 90.97487361 371.90351868 97.72290039 Z " fill="#FF0101" transform="translate(59,146)"/>
<path d="M0 0 C15.18 0 30.36 0 46 0 C46 25.74 46 51.48 46 78 C47.98 77.505 47.98 77.505 50 77 C50.68510316 75.67604536 51.34853774 74.34082778 52 73 C66.98568192 58.95890109 84.29320047 56.41512798 104.1484375 56.66015625 C121.18418489 57.22057327 135.76535454 64.66134607 147.4609375 76.98046875 C166.66330679 99.81651715 168.5937417 128.19329177 166.83007812 156.75146484 C165.33380288 173.1343546 158.86791101 189.58812377 148 202 C147.23945312 202.87011719 146.47890625 203.74023438 145.6953125 204.63671875 C134.37010833 216.73985227 119.40929359 223.49687427 102.8203125 224.23828125 C82.89248418 224.70971964 67.80907895 220.18182137 52.41015625 207.05078125 C50.33836115 205.2879086 48.17624336 203.63218252 46 202 C46 207.61 46 213.22 46 219 C30.82 219 15.64 219 0 219 C0 146.73 0 74.46 0 0 Z " fill="#FF0101" transform="translate(1236,126)"/>
<path d="M0 0 C0.83015625 0.66773438 1.6603125 1.33546875 2.515625 2.0234375 C18.84433542 15.89783255 28.63837076 35.76761638 31 57 C32.34983624 81.88462818 27.25274196 105.15085713 10.5625 124.25 C9.05877981 125.84959497 7.5388878 127.43420857 6 129 C5.38640625 129.62648438 4.7728125 130.25296875 4.140625 130.8984375 C-13.59125814 147.64521602 -37.74285631 151.77079663 -61.26171875 151.3125 C-83.14890271 150.44209003 -102.78553166 140.56422623 -118 125 C-132.37578097 108.18059622 -138.41228993 88.30606837 -138.25 66.4375 C-138.25773437 65.39142578 -138.26546875 64.34535156 -138.2734375 63.26757812 C-138.22148318 42.3429763 -130.5733933 22.21424284 -116 7 C-86.34105863 -21.08899741 -32.47929726 -26.48479609 0 0 Z " fill="#FF0101" transform="translate(1564,199)"/>
<path d="M0 0 C1.81105225 -0.0153479 1.81105225 -0.0153479 3.65869141 -0.03100586 C25.93594856 0.18650389 46.7257955 8.57575363 62.875 23.875 C79.83675774 42.17584388 86.296018 64.64000547 85.38183594 89.2890625 C84.07429275 110.59717371 75.35355926 130.30753592 60.25 145.4375 C59.63640625 146.06269531 59.0228125 146.68789063 58.390625 147.33203125 C48.1719276 157.00485807 35.63493178 161.96107713 22.25 165.4375 C20.92162109 165.80681641 20.92162109 165.80681641 19.56640625 166.18359375 C-2.71778602 171.35352636 -27.95480879 166.88937283 -47.4375 155.25 C-65.08482051 143.3012934 -78.3557405 125.5637476 -82.75 104.4375 C-86.71284225 79.21941296 -83.7517767 53.74783435 -69.02734375 32.5546875 C-57.02048722 16.11991646 -39.95586512 4.96964884 -19.8828125 1.09375 C-13.29039671 0.09155193 -6.6564458 0.04347583 0 0 Z " fill="#FF0101" transform="translate(852.75,182.5625)"/>
<path d="M0 0 C1.17973389 -0.00563965 2.35946777 -0.0112793 3.57495117 -0.01708984 C14.84576457 0.07580364 25.0718037 1.39538857 35.4375 5.9375 C36.25541016 6.29158936 37.07332031 6.64567871 37.91601562 7.01049805 C58.13302443 16.06286014 72.04375543 32.84293567 79.875 53.3125 C87.45316639 75.90622828 85.84665639 101.74729131 75.875 123.3125 C66.58496361 141.27456607 52.7338323 154.03837897 33.875 161.3125 C32.93140625 161.68117188 31.9878125 162.04984375 31.015625 162.4296875 C8.36835911 170.63782355 -17.52005197 169.51049843 -39.42578125 159.6484375 C-59.22043847 149.85137126 -73.60110653 133.55900158 -81.05859375 112.76171875 C-88.15153356 89.82008561 -87.55331114 64.35172155 -76.33007812 42.87548828 C-65.32989851 22.88846468 -49.55485029 10.43296144 -28.125 3.3125 C-27.11050781 2.9721875 -26.09601562 2.631875 -25.05078125 2.28125 C-16.77499838 0.03837785 -8.52984225 0.0389262 0 0 Z " fill="#FF0101" transform="translate(1037.125,182.6875)"/>
<path d="M0 0 C70.62 0 141.24 0 214 0 C214 15.18 214 30.36 214 46 C186.94 46 159.88 46 132 46 C132 103.09 132 160.18 132 219 C115.83 219 99.66 219 83 219 C83 161.58 83 104.16 83 45 C55.61 45 28.22 45 0 45 C0 30.15 0 15.3 0 0 Z " fill="#FF0101" transform="translate(594,126)"/>
<path d="M0 0 C2.27656803 1.06714654 4.54570246 2.15024397 6.80859375 3.24609375 C8.04055956 3.83192465 9.27290832 4.41695085 10.50561523 5.0012207 C14.43135637 6.87042781 18.34084063 8.77200691 22.24609375 10.68359375 C22.89642578 11.00187134 23.54675781 11.32014893 24.21679688 11.64807129 C35.78413392 17.31880001 47.31633001 23.05908154 58.69842815 29.09431553 C68.25863491 34.16003429 77.89071377 39.06338537 87.58159447 43.87364388 C90.13007004 45.13893426 92.67694549 46.40739821 95.22346497 47.67662048 C102.44784291 51.27679456 109.67457708 54.87221929 116.90307617 58.46411133 C121.36825096 60.68315885 125.83137013 62.90629773 130.29332924 65.13180351 C131.96793307 65.96604838 133.64328858 66.79878649 135.31947899 67.62983894 C146.15213796 73.00099815 156.76671094 78.65083843 167.24609375 84.68359375 C159.85896727 93.86758884 150.8600337 101.37672633 141.66796875 108.69921875 C139.31027285 110.56435149 139.31027285 110.56435149 137.57421875 112.35546875 C134.7919702 115.1377173 132.64274636 116.02497641 128.81787109 116.17822266 C122.02127331 116.0249713 116.97629187 112.96819384 111.16015625 109.70703125 C109.37850189 108.74590629 107.59679231 107.78487662 105.81297493 106.82777214 C104.56040269 106.15493169 103.30913197 105.47966324 102.05911064 104.80209541 C94.8571261 100.90384241 87.53506783 97.25160582 80.20703125 93.59765625 C78.83561103 92.91180602 77.46429382 92.22574976 76.09307861 91.53948975 C73.3291603 90.156656 70.56454277 88.77523567 67.79931641 87.39501953 C64.28993816 85.64320796 60.78241724 83.88771177 57.27534008 82.13129902 C38.93693733 72.93996132 38.93693733 72.93996132 20.41722107 64.12171936 C14.41523379 61.33069534 8.62815087 58.19985354 2.87304688 54.93554688 C2.11830078 54.52369141 1.36355469 54.11183594 0.5859375 53.6875 C-0.05996338 53.32470947 -0.70586426 52.96191895 -1.37133789 52.58813477 C-6.20364216 50.7535526 -9.6757964 49.96771244 -14.61188602 51.66812992 C-18.09520195 53.2593815 -21.50153954 54.97289886 -24.89941406 56.73632812 C-26.21339968 57.39964847 -27.52829604 58.0611673 -28.84402466 58.72102356 C-31.66662379 60.14132571 -34.48247855 61.57394314 -37.29373932 63.01655579 C-41.73779931 65.29677167 -46.19617889 67.54792568 -50.65692139 69.79528809 C-58.50960545 73.7561469 -66.34978413 77.74125633 -74.18737793 81.73187256 C-85.99876689 87.74555397 -97.81973492 93.74029123 -109.65249896 99.71180391 C-114.0865284 101.95063308 -118.51378636 104.20218735 -122.93613482 106.46399689 C-125.68374058 107.86650477 -128.43620987 109.25924994 -131.19002914 110.64951134 C-132.46766371 111.29715505 -133.74319471 111.94896756 -135.01644516 112.60518837 C-136.75187282 113.49895344 -138.49552426 114.37669679 -140.23956299 115.25354004 C-141.21364735 115.74984169 -142.1877317 116.24614334 -143.19133377 116.75748444 C-146.00424676 117.77406638 -147.04239858 117.84993298 -149.75390625 116.68359375 C-151.85836356 115.06700103 -153.83444495 113.43803024 -155.81640625 111.68359375 C-156.98231263 110.6722999 -158.14899097 109.6618954 -159.31640625 108.65234375 C-159.89648438 108.14832031 -160.4765625 107.64429688 -161.07421875 107.125 C-163.44514713 105.09041262 -165.87970583 103.13862083 -168.31640625 101.18359375 C-174.36334665 96.26933982 -180.06111502 90.99885258 -185.75390625 85.68359375 C-183.33954923 82.95782702 -180.82481799 81.53979814 -177.57421875 79.93139648 C-176.51460937 79.40331894 -175.455 78.87524139 -174.36328125 78.3311615 C-173.2134375 77.76555008 -172.06359375 77.19993866 -170.87890625 76.6171875 C-169.67288393 76.01825452 -168.46715996 75.41872046 -167.26171875 74.81861877 C-164.07566505 73.23415611 -160.88626981 71.65654639 -157.69592285 70.08074951 C-152.64786822 67.58623185 -147.60461027 65.08204775 -142.56195068 62.5766468 C-140.83169874 61.71827986 -139.09972639 60.86338343 -137.36767578 60.00865173 C-130.74400855 56.72593307 -124.18410384 53.34485638 -117.65087891 49.88647461 C-107.64069692 44.59093593 -97.53362036 39.5004882 -87.40234375 34.44140625 C-85.52286065 33.50132657 -83.64343686 32.56112833 -81.7640686 31.62081909 C-77.86728445 29.67169798 -73.96979712 27.72399251 -70.07177734 25.77734375 C-65.09568965 23.29216879 -60.12142946 20.80336023 -55.14768028 18.31350899 C-51.28439313 16.38005448 -47.4201513 14.44851437 -43.5556221 12.51754379 C-41.72064561 11.60038686 -39.88596112 10.68264546 -38.05158615 9.76428604 C-35.49157494 8.48300144 -32.93028302 7.20431265 -30.36865234 5.92626953 C-29.62669617 5.55427933 -28.88473999 5.18228912 -28.12030029 4.79902649 C-9.90636571 -4.27169674 -9.90636571 -4.27169674 0 0 Z " fill="#FF0101" transform="translate(304.75390625,27.31640625)"/>
<path d="M0 0 C7.59869571 -0.12679156 15.19711858 -0.21434844 22.79663086 -0.2746582 C25.3816955 -0.29980001 27.96668907 -0.33391815 30.55151367 -0.37719727 C34.26759374 -0.43785922 37.98273386 -0.46621419 41.69921875 -0.48828125 C43.43228523 -0.52699089 43.43228523 -0.52699089 45.20036316 -0.56648254 C53.24266584 -0.56929285 53.24266584 -0.56929285 57.11206055 2.33935547 C57.73508057 3.21736816 58.35810059 4.09538086 59 5 C59.82757812 6.00933594 60.65515625 7.01867187 61.5078125 8.05859375 C62.38362704 9.1822395 63.25588244 10.30866629 64.125 11.4375 C65.08838704 12.67720351 66.05193351 13.91678314 67.015625 15.15625 C67.50611328 15.78917969 67.99660156 16.42210937 68.50195312 17.07421875 C69.98729571 18.98366828 71.48351812 20.88397758 72.984375 22.78125 C73.71116455 23.70079468 73.71116455 23.70079468 74.45263672 24.63891602 C75.37003395 25.79896843 76.28826641 26.95836105 77.20751953 28.11694336 C79.46864109 30.98438239 81.59477956 33.87898178 83.6328125 36.91015625 C84.41398437 37.92980469 85.19515625 38.94945312 86 40 C86.99 40 87.98 40 89 40 C90.6637533 38.33360593 90.6637533 38.33360593 92.22265625 36.08203125 C92.83890869 35.24567139 93.45516113 34.40931152 94.09008789 33.54760742 C94.74098389 32.64502197 95.39187988 31.74243652 96.0625 30.8125 C97.41610405 28.9709405 98.7702716 27.12979504 100.125 25.2890625 C101.11693359 23.93216309 101.11693359 23.93216309 102.12890625 22.54785156 C104.56607946 19.22917468 107.05060948 15.94981844 109.5625 12.6875 C110.28566406 11.74261719 111.00882813 10.79773438 111.75390625 9.82421875 C112.49511719 8.89222656 113.23632812 7.96023437 114 7 C114.36166763 6.41160339 114.72333527 5.82320679 115.09596252 5.21697998 C117.24339387 2.08633848 118.84736376 0.2700315 122.62373352 -0.6146698 C125.90322897 -0.81050492 129.11464893 -0.78673955 132.3984375 -0.68359375 C133.58853424 -0.67368912 134.77863098 -0.66378448 136.00479126 -0.65357971 C139.79612813 -0.6144766 143.58454212 -0.52665049 147.375 -0.4375 C149.94917687 -0.4023814 152.52339923 -0.37044338 155.09765625 -0.34179688 C161.39943033 -0.26472735 167.69950635 -0.14767455 174 0 C172.50611009 3.91189002 170.80771824 6.85573545 168.25 10.1875 C167.86078369 10.69740479 167.47156738 11.20730957 167.07055664 11.73266602 C165.72128306 13.49442662 164.3619076 15.247989 163 17 C162.49388184 17.65162109 161.98776367 18.30324219 161.46630859 18.97460938 C159.19810733 21.89253788 156.9280601 24.80900555 154.65405273 27.72241211 C149.30481658 34.58290897 144.03707957 41.50377529 138.77587891 48.43188477 C134.02895544 54.67376956 129.21476762 60.85608731 124.33203125 66.9921875 C123.56246094 67.98476562 122.79289062 68.97734375 122 70 C121.52353027 70.58040039 121.04706055 71.16080078 120.55615234 71.75878906 C117.7259936 75.27749021 117.7259936 75.27749021 116.94140625 79.59375 C118.26237224 82.59638856 119.91539027 84.91283677 121.9375 87.5 C122.33791504 88.01771973 122.73833008 88.53543945 123.15087891 89.06884766 C123.99949303 90.16490568 124.85179187 91.2581195 125.70751953 92.34863281 C126.9611871 93.95040982 128.19996133 95.56244678 129.43359375 97.1796875 C133.6608001 102.71764233 137.94121794 108.21284905 142.25 113.6875 C151.18554497 125.04112394 160.0939277 136.4159153 168.8125 147.9375 C169.32224365 148.60571777 169.8319873 149.27393555 170.35717773 149.96240234 C172.35915095 152.62362517 173.93935705 154.81807115 175 158 C167.29578839 158.20321382 159.59227 158.34309447 151.88598633 158.43945312 C149.26593195 158.47962956 146.64605632 158.53418267 144.02661133 158.60351562 C140.25557344 158.70081427 136.48690984 158.74598781 132.71484375 158.78125 C131.54791489 158.82254028 130.38098602 158.86383057 129.17869568 158.90637207 C121.20787634 158.91074813 121.20787634 158.91074813 117.77462769 156.322052 C115.98030592 154.30219942 114.47218316 152.26237599 113 150 C112.37125977 149.19804199 111.74251953 148.39608398 111.09472656 147.56982422 C110.61487305 146.9048291 110.13501953 146.23983398 109.640625 145.5546875 C109.08713379 144.79389893 108.53364258 144.03311035 107.96337891 143.24926758 C107.39796387 142.46575928 106.83254883 141.68225098 106.25 140.875 C100.34411367 132.76933423 94.26151246 124.83327988 88 117 C82.67185961 121.00417824 79.0965533 125.59048282 75.25 131 C74.01922716 132.69994175 72.78745067 134.39915729 71.5546875 136.09765625 C70.95366211 136.9292627 70.35263672 137.76086914 69.73339844 138.61767578 C67.32601247 141.92630568 64.86591943 145.19146685 62.375 148.4375 C61.61960937 149.42621094 60.86421875 150.41492188 60.0859375 151.43359375 C54.8856636 157.83168355 54.8856636 157.83168355 51.46893311 158.48101807 C50.51851135 158.47213562 49.5680896 158.46325317 48.58886719 158.45410156 C47.50804871 158.45379944 46.42723022 158.45349731 45.31365967 158.45318604 C44.15312073 158.43254089 42.99258179 158.41189575 41.796875 158.390625 C40.60394836 158.38496521 39.41102173 158.37930542 38.1819458 158.37347412 C34.37088944 158.35107926 30.56077233 158.30087429 26.75 158.25 C24.16668024 158.22993915 21.58334575 158.21168766 19 158.1953125 C12.66634606 158.15120411 6.33324013 158.08425978 0 158 C1.5767194 153.83164631 3.47757164 150.82393659 6.25 147.3125 C6.68473633 146.75780029 7.11947266 146.20310059 7.56738281 145.6315918 C8.5257697 144.40889716 9.48649399 143.18803202 10.44921875 141.96875 C12.64503347 139.1811162 14.81904798 136.37673267 16.99487305 133.57348633 C21.14683657 128.22485173 25.30765683 122.88316587 29.48046875 117.55078125 C37.62243866 107.13406879 45.60272648 96.60431305 53.50463867 86.00439453 C54.546076 84.60844343 55.62334683 83.23881712 56.72680664 81.89135742 C57.14696045 81.26720947 57.56711426 80.64306152 58 80 C57.02709918 75.74008426 54.42069436 72.69508475 51.75 69.3125 C51.31816406 68.76142578 50.88632813 68.21035156 50.44140625 67.64257812 C49.48597105 66.42352845 48.52816781 65.20633209 47.56835938 63.99072266 C44.69355752 60.34172914 41.85002864 56.66834987 39 53 C37.79168288 51.44790405 36.58334977 49.89582054 35.375 48.34375 C31.77436323 43.71435987 28.19953868 39.06573448 24.6328125 34.41015625 C22.62523651 31.79905175 20.59329122 29.20803844 18.5546875 26.62109375 C0 3.03324322 0 3.03324322 0 0 Z " fill="#FF0101" transform="translate(1604,187)"/>
<path d="M0 0 C14.52 0 29.04 0 44 0 C44.029729 7.5036731 44.029729 7.5036731 44.06005859 15.15893555 C44.12688266 31.66336165 44.20442306 48.16772444 44.28752708 64.67207623 C44.33766367 74.68135231 44.3841065 84.69062015 44.421875 94.69995117 C44.45480069 103.42337443 44.49463515 112.14673399 44.54279006 120.87008697 C44.56804926 125.48966405 44.58983229 130.1091989 44.60334396 134.72882652 C44.61616951 139.07656655 44.63822934 143.42416172 44.66738319 147.77182198 C44.67645509 149.36775014 44.6821483 150.96370162 44.68421364 152.55965424 C44.68753893 154.73884251 44.70302325 156.91762081 44.7215271 159.09672546 C44.72705786 160.31625758 44.73258862 161.5357897 44.73828697 162.79227734 C45.07393042 166.90613865 45.83370404 169.82840269 48.77246094 172.78051758 C51.53480975 174.29278548 53.49915912 174.42816913 56.640625 174.51171875 C57.60516602 174.54483154 58.56970703 174.57794434 59.56347656 174.61206055 C60.7800293 174.63695557 61.99658203 174.66185059 63.25 174.6875 C69.06625 174.8421875 69.06625 174.8421875 75 175 C75 189.52 75 204.04 75 219 C70.153125 219.04125 65.30625 219.0825 60.3125 219.125 C58.81243408 219.14320801 57.31236816 219.16141602 55.7668457 219.18017578 C39.20811009 219.24762481 23.24346677 217.70433791 10.31640625 206.546875 C-0.13410359 195.79777917 -0.86396464 182.28412797 -0.68115234 168.24462891 C-0.67945612 166.40022335 -0.68041726 164.55581375 -0.68380737 162.71141052 C-0.68551587 157.74715879 -0.65045342 152.78379217 -0.60836363 147.81974459 C-0.57063666 142.61615369 -0.56731404 137.41253835 -0.56021118 132.20883179 C-0.54162654 122.37409003 -0.49247649 112.53975257 -0.43211424 102.70518816 C-0.36484967 91.50078089 -0.33201008 80.29635344 -0.30194163 69.09179425 C-0.23937121 46.06092099 -0.12941896 23.03060132 0 0 Z " fill="#FF0101" transform="translate(1135,127)"/>
<path d="M0 0 C1.02287109 0.62068359 1.02287109 0.62068359 2.06640625 1.25390625 C3.13568359 1.89005859 3.13568359 1.89005859 4.2265625 2.5390625 C9.61883888 6.15743113 12.84751291 10.683909 16.06640625 16.25390625 C16.64390625 17.24390625 17.22140625 18.23390625 17.81640625 19.25390625 C22.80822474 31.23427062 22.63352203 45.17287592 17.9140625 57.1875 C12.88081723 68.35544864 6.09427726 73.97518475 -5.234375 78.34375 C-14.58451474 81.49654676 -24.21415561 81.39954315 -33.37109375 77.56640625 C-44.23179214 72.00360951 -50.36257932 63.41275502 -54.37109375 52.00390625 C-57.83259011 39.37169226 -56.72915346 27.32006794 -50.61328125 15.7578125 C-40.28307855 -0.97937384 -18.32548332 -9.14680646 0 0 Z " fill="#FFFCFC" transform="translate(1053.93359375,227.74609375)"/>
<path d="M0 0 C10.57155495 6.45484357 16.81185592 13.9626154 21.31640625 25.44921875 C23.7166507 37.65046137 22.12658158 51.29568719 16.06640625 62.26171875 C9.8479866 70.4818773 3.11649097 76.38791464 -6.93359375 79.26171875 C-9.927269 79.65765106 -12.85477648 79.69265387 -15.87109375 79.63671875 C-17.06013306 79.6214917 -17.06013306 79.6214917 -18.27319336 79.60595703 C-28.79115021 79.32657549 -36.97322587 75.90420034 -44.69140625 68.59765625 C-53.89212341 58.4722439 -55.59387114 46.77348459 -55.24609375 33.4921875 C-54.65651282 22.53335197 -49.70920848 12.51762115 -41.74609375 5.01171875 C-30.2276106 -3.8945814 -13.44650266 -6.66478828 0 0 Z " fill="#FFFDFD" transform="translate(1526.93359375,227.73828125)"/>
<path d="M0 0 C9.02766866 7.38355682 14.49859753 17.28708549 15.92724609 28.88525391 C16.7451122 42.80485861 15.55621936 53.72530214 6.359375 64.7421875 C2.23745988 69.02210937 -1.98388601 71.89228732 -7.390625 74.3046875 C-8.2775 74.7171875 -9.164375 75.1296875 -10.078125 75.5546875 C-20.05276007 78.78970428 -30.09762698 78.32891991 -39.56640625 73.91015625 C-49.62013753 68.19496461 -56.02836556 59.74032393 -59.265625 48.6796875 C-62.34703421 34.44651165 -61.00004136 20.99683214 -53.1171875 8.62890625 C-41.33429549 -7.23267914 -16.17493758 -11.47046227 0 0 Z " fill="#FFFDFD" transform="translate(875.390625,230.6953125)"/>
<path d="M0 0 C10.16795462 6.23148191 16.57158364 15.01545977 19.61328125 26.6015625 C19.91575804 29.85582062 19.94710062 33.08482605 19.92578125 36.3515625 C19.9201416 37.24536621 19.91450195 38.13916992 19.90869141 39.06005859 C19.69548475 50.6217703 16.47670365 60.19707099 8.5390625 68.8671875 C0.10716778 76.81347571 -8.83914278 80.02994508 -20.3515625 79.875 C-29.91205714 79.01369418 -37.45855408 75.08809117 -44.38671875 68.6015625 C-44.95132812 68.07820313 -45.5159375 67.55484375 -46.09765625 67.015625 C-54.58132418 58.18744264 -56.78341636 46.15085395 -56.66015625 34.3671875 C-55.79371416 22.43504211 -50.75718923 12.29048068 -41.94921875 4.2265625 C-30.22341241 -5.11702585 -13.42801213 -6.64900186 0 0 Z " fill="#FFFCFC" transform="translate(1337.38671875,228.3984375)"/>
<path d="M0 0 C5.84159988 3.09418076 9.23906043 7.41263856 11.30078125 13.70703125 C12.95903396 22.59842435 12.45497434 31.14328062 7.7109375 38.90625 C7.1746875 39.834375 6.6384375 40.7625 6.0859375 41.71875 C1.06775662 46.3407587 -5.11605306 48.12819053 -11.8515625 48.46875 C-18.32637261 48.19400558 -23.36266227 45.91851039 -27.88671875 41.26171875 C-33.67453162 33.78649688 -34.19766558 25.05876399 -33.2890625 15.90625 C-31.359953 9.12453516 -27.90230669 3.21618244 -21.7265625 -0.40625 C-14.76439104 -3.59562463 -6.92362543 -3.05204713 0 0 Z " fill="#FF0707" transform="translate(851.2890625,418.09375)"/>
<path d="M0 0 C4.33125 -0.061875 8.6625 -0.12375 13.125 -0.1875 C14.47996582 -0.21481201 15.83493164 -0.24212402 17.23095703 -0.27026367 C18.85300049 -0.28150269 18.85300049 -0.28150269 20.5078125 -0.29296875 C21.60754395 -0.3086792 22.70727539 -0.32438965 23.84033203 -0.34057617 C28.61061142 0.17360554 31.87416337 1.96304521 35.375 5.1875 C37.52564345 8.90976752 37.7220223 11.7952819 37 16 C34.86111111 20.56944444 34.86111111 20.56944444 32 22 C32.78375 22.5775 33.5675 23.155 34.375 23.75 C38.26315524 27.08270449 38.87163265 28.69493189 39.375 33.8125 C39.23382463 38.54187478 37.82368869 41.21031255 35 45 C30.55964672 47.74877111 27.25270213 48.36176153 22.0703125 48.29296875 C20.32645264 48.28172974 20.32645264 48.28172974 18.54736328 48.27026367 C17.0879834 48.24295166 15.62860352 48.21563965 14.125 48.1875 C9.46375 48.125625 4.8025 48.06375 0 48 C0 32.16 0 16.32 0 0 Z " fill="#FF0202" transform="translate(873,417)"/>
<path d="M0 0 C4.33125 -0.061875 8.6625 -0.12375 13.125 -0.1875 C14.47996582 -0.21481201 15.83493164 -0.24212402 17.23095703 -0.27026367 C18.85300049 -0.28150269 18.85300049 -0.28150269 20.5078125 -0.29296875 C21.60754395 -0.3086792 22.70727539 -0.32438965 23.84033203 -0.34057617 C28.61061142 0.17360554 31.87416337 1.96304521 35.375 5.1875 C37.52564345 8.90976752 37.7220223 11.7952819 37 16 C34.86111111 20.56944444 34.86111111 20.56944444 32 22 C32.78375 22.5775 33.5675 23.155 34.375 23.75 C38.26315524 27.08270449 38.87163265 28.69493189 39.375 33.8125 C39.23382463 38.54187478 37.82368869 41.21031255 35 45 C30.55964672 47.74877111 27.25270213 48.36176153 22.0703125 48.29296875 C20.32645264 48.28172974 20.32645264 48.28172974 18.54736328 48.27026367 C17.0879834 48.24295166 15.62860352 48.21563965 14.125 48.1875 C9.46375 48.125625 4.8025 48.06375 0 48 C0 32.16 0 16.32 0 0 Z " fill="#FF0202" transform="translate(770,417)"/>
<path d="M0 0 C4.49625 -0.061875 8.9925 -0.12375 13.625 -0.1875 C15.03217285 -0.21481201 16.4393457 -0.24212402 17.88916016 -0.27026367 C19.01112793 -0.27775635 20.1330957 -0.28524902 21.2890625 -0.29296875 C23.00150146 -0.31653442 23.00150146 -0.31653442 24.74853516 -0.34057617 C29.79159292 0.18766122 32.99105791 1.88485347 36.375 5.625 C38.45085704 9.93639538 38.84123321 13.29750634 38 18 C36.31597616 21.30790397 35.02317013 23.31788658 31.9375 25.375 C30 26 30 26 27 26 C27 26.66 27 27.32 27 28 C27.56460937 28.18820312 28.12921875 28.37640625 28.7109375 28.5703125 C32.00788596 30.62949874 33.64186121 33.62926284 35.625 36.875 C36.01945312 37.50019531 36.41390625 38.12539063 36.8203125 38.76953125 C38.70212139 41.77661099 40.49732112 44.78459036 42 48 C38.14582351 48.6899882 34.82734251 48.9270559 31 48 C27.93748212 44.75010053 26.10916197 40.91041708 24 37 C22.3550545 34.53279283 22.3550545 34.53279283 20.5625 32.375 C20.06878906 31.74335938 19.57507812 31.11171875 19.06640625 30.4609375 C16.32133153 28.27660664 16.32133153 28.27660664 9 28 C9 34.6 9 41.2 9 48 C6.03 48 3.06 48 0 48 C0 32.16 0 16.32 0 0 Z " fill="#FF0303" transform="translate(1473,417)"/>
<path d="M0 0 C10 0 10 0 12.37280273 2.1237793 C12.88786377 3.09742432 13.4029248 4.07106934 13.93359375 5.07421875 C14.51947266 6.13447266 15.10535156 7.19472656 15.70898438 8.28710938 C16.27939453 9.40923828 16.84980469 10.53136719 17.4375 11.6875 C18.3337207 13.34168945 18.3337207 13.34168945 19.24804688 15.02929688 C20.36057804 17.08654724 21.45738983 19.15243422 22.53295898 21.22924805 C23.93101176 23.86970418 25.46282305 26.43803841 27 29 C27.33 19.43 27.66 9.86 28 0 C30.97 0 33.94 0 37 0 C37 15.84 37 31.68 37 48 C27 48 27 48 24.51953125 45.75268555 C23.95621094 44.7244165 23.39289063 43.69614746 22.8125 42.63671875 C21.85923828 40.96512695 21.85923828 40.96512695 20.88671875 39.25976562 C20.25683354 38.06952798 19.62793694 36.87876665 19 35.6875 C18.34333851 34.50651358 17.68321025 33.32744773 17.01953125 32.15039062 C15.81078864 29.98836131 14.61766626 27.81747332 13.4453125 25.63549805 C11.98893496 22.88993282 11.98893496 22.88993282 10 20 C9.67 29.24 9.34 38.48 9 48 C6.03 48 3.06 48 0 48 C0 32.16 0 16.32 0 0 Z " fill="#FF0101" transform="translate(1281,417)"/>
<path d="M0 0 C3.3 0 6.6 0 10 0 C21.89438718 32.10150945 21.89438718 32.10150945 27 48 C23.7 48 20.4 48 17 48 C16.01 44.37 15.02 40.74 14 37 C7.73 37 1.46 37 -5 37 C-5.99 40.63 -6.98 44.26 -8 48 C-11.3 48 -14.6 48 -18 48 C-12.52714688 31.7869061 -6.33815107 15.88928501 0 0 Z " fill="#FF0404" transform="translate(1436,417)"/>
<path d="M0 0 C3.3 0 6.6 0 10 0 C21.89438718 32.10150945 21.89438718 32.10150945 27 48 C23.7 48 20.4 48 17 48 C16.01 44.37 15.02 40.74 14 37 C7.73 37 1.46 37 -5 37 C-5.99 40.63 -6.98 44.26 -8 48 C-11.3 48 -14.6 48 -18 48 C-12.52714688 31.7869061 -6.33815107 15.88928501 0 0 Z " fill="#FF0404" transform="translate(1344,417)"/>
<path d="M0 0 C3.3 0 6.6 0 10 0 C21.89438718 32.10150945 21.89438718 32.10150945 27 48 C23.7 48 20.4 48 17 48 C16.01 44.37 15.02 40.74 14 37 C7.73 37 1.46 37 -5 37 C-5.99 40.63 -6.98 44.26 -8 48 C-11.3 48 -14.6 48 -18 48 C-12.52714688 31.7869061 -6.33815107 15.88928501 0 0 Z " fill="#FF0404" transform="translate(1014,417)"/>
<path d="M0 0 C3.3 0 6.6 0 10 0 C21.89438718 32.10150945 21.89438718 32.10150945 27 48 C23.7 48 20.4 48 17 48 C16.01 44.37 15.02 40.74 14 37 C7.73 37 1.46 37 -5 37 C-5.99 40.63 -6.98 44.26 -8 48 C-11.3 48 -14.6 48 -18 48 C-12.52714688 31.7869061 -6.33815107 15.88928501 0 0 Z " fill="#FF0404" transform="translate(687,417)"/>
<path d="M0 0 C2.97 0 5.94 0 9 0 C9.33 6.27 9.66 12.54 10 19 C10.969375 17.865625 11.93875 16.73125 12.9375 15.5625 C16.50204602 11.47311285 20.29264726 7.66444147 24.1796875 3.8828125 C26.06383898 2.12246661 26.06383898 2.12246661 27 0 C31.29 0 35.58 0 40 0 C37.247242 3.24684277 34.49532634 6.46681945 31.59765625 9.5859375 C30.78167969 10.46507812 29.96570312 11.34421875 29.125 12.25 C28.34382813 13.08015625 27.56265625 13.9103125 26.7578125 14.765625 C24.69084655 16.91914421 24.69084655 16.91914421 25 20 C26.15771435 22.39274012 26.15771435 22.39274012 27.73828125 24.96484375 C28.31126953 25.92970703 28.88425781 26.89457031 29.47460938 27.88867188 C30.08111328 28.89478516 30.68761719 29.90089844 31.3125 30.9375 C31.90740234 31.93974609 32.50230469 32.94199219 33.11523438 33.97460938 C36.20267118 39.22006223 36.20267118 39.22006223 39.69604492 44.19360352 C41 46 41 46 41 48 C37.55494029 48.48163942 34.43156619 48.64706503 31 48 C28.48601284 45.8339014 27.41176233 42.96000925 26 40 C24.9571377 38.13086587 23.88459268 36.28069366 22.80908203 34.43017578 C21.18357013 31.63276675 19.59368299 28.81563843 18 26 C15.59011923 25.78609246 15.59011923 25.78609246 12.9375 28.5625 C8.34107833 33.95295072 9.01731799 41.27196186 9 48 C6.03 48 3.06 48 0 48 C0 32.16 0 16.32 0 0 Z " fill="#FF0303" transform="translate(1181,417)"/>
<path d="M0 0 C4.29715664 1.64122781 7.14279524 3.92849405 10 7.5 C11.07952225 10.19880564 11.24683382 12.12027211 11 15 C8.03 15 5.06 15 2 15 C1.34 13.02 0.68 11.04 0 9 C-1.62463842 8.94604522 -3.24978541 8.90722805 -4.875 8.875 C-5.77992187 8.85179687 -6.68484375 8.82859375 -7.6171875 8.8046875 C-10.18806994 8.75675164 -10.18806994 8.75675164 -12 11 C-11.67958603 13.60280568 -11.67958603 13.60280568 -11 16 C-9.98679687 16.31453125 -8.97359375 16.6290625 -7.9296875 16.953125 C-6.57796765 17.3849244 -5.22641386 17.81724388 -3.875 18.25 C-3.20984375 18.45496094 -2.5446875 18.65992188 -1.859375 18.87109375 C3.50446312 20.60645314 8.13023425 22.81860662 11.875 27.1875 C13.7165398 31.79134949 13.90234001 36.25538247 12.34375 40.99609375 C10.46539118 44.76090776 8.02340488 47.42797327 4.18359375 49.34375 C-3.29948457 51.59268946 -11.16616267 50.53895147 -18 47 C-21.95962669 42.93617261 -24 39.68056704 -24 34 C-19.545 33.505 -19.545 33.505 -15 33 C-14.566875 33.94875 -14.13375 34.8975 -13.6875 35.875 C-12.20697799 39.20041937 -12.20697799 39.20041937 -9 41 C-3.55390704 41.45135019 -3.55390704 41.45135019 1.5 39.8125 C3.25049111 38.04386734 3.25049111 38.04386734 3.25 35.3125 C3.1675 34.549375 3.085 33.78625 3 33 C-1.87084865 30.73896408 -6.70895347 28.74310336 -11.8125 27.0625 C-16.18581657 25.47220306 -18.87075556 24.35527272 -21 20 C-22.17241165 15.50991284 -22.3772981 12.11093329 -20.875 7.6875 C-15.36866255 -0.20491702 -9.0878049 -1.01228365 0 0 Z " fill="#FF0707" transform="translate(1156,416)"/>
<path d="M0 0 C4.29715664 1.64122781 7.14279524 3.92849405 10 7.5 C11.07952225 10.19880564 11.24683382 12.12027211 11 15 C8.03 15 5.06 15 2 15 C1.34 13.02 0.68 11.04 0 9 C-1.62463842 8.94604522 -3.24978541 8.90722805 -4.875 8.875 C-5.77992188 8.85179687 -6.68484375 8.82859375 -7.6171875 8.8046875 C-10.18806994 8.75675164 -10.18806994 8.75675164 -12 11 C-11.67958603 13.60280568 -11.67958603 13.60280568 -11 16 C-9.98679687 16.31453125 -8.97359375 16.6290625 -7.9296875 16.953125 C-6.57796765 17.3849244 -5.22641386 17.81724388 -3.875 18.25 C-3.20984375 18.45496094 -2.5446875 18.65992188 -1.859375 18.87109375 C3.50446312 20.60645314 8.13023425 22.81860662 11.875 27.1875 C13.7165398 31.79134949 13.90234001 36.25538247 12.34375 40.99609375 C10.46539118 44.76090776 8.02340488 47.42797327 4.18359375 49.34375 C-3.29948457 51.59268946 -11.16616267 50.53895147 -18 47 C-21.95962669 42.93617261 -24 39.68056704 -24 34 C-19.545 33.505 -19.545 33.505 -15 33 C-14.566875 33.94875 -14.13375 34.8975 -13.6875 35.875 C-12.20697799 39.20041937 -12.20697799 39.20041937 -9 41 C-3.55390704 41.45135019 -3.55390704 41.45135019 1.5 39.8125 C3.25049111 38.04386734 3.25049111 38.04386734 3.25 35.3125 C3.1675 34.549375 3.085 33.78625 3 33 C-1.87084865 30.73896408 -6.70895347 28.74310336 -11.8125 27.0625 C-16.18581657 25.47220306 -18.87075556 24.35527272 -21 20 C-22.17241165 15.50991284 -22.3772981 12.11093329 -20.875 7.6875 C-15.36866255 -0.20491702 -9.0878049 -1.01228365 0 0 Z " fill="#FF0707" transform="translate(745,416)"/>
<path d="M0 0 C2.97 0 5.94 0 9 0 C9.01401855 1.60439941 9.01401855 1.60439941 9.02832031 3.24121094 C9.06823512 7.2149397 9.13399721 11.18789544 9.20751953 15.16113281 C9.23572067 16.87978169 9.25693954 18.59856005 9.27099609 20.31738281 C9.29243833 22.79038747 9.33909156 25.26183675 9.390625 27.734375 C9.39185364 28.50118591 9.39308228 29.26799683 9.39434814 30.05804443 C9.4915261 33.60856378 9.71269583 35.62436273 11.89941406 38.48339844 C14.31492755 40.22737447 15.54585266 40.54046777 18.5 40.5 C19.2528125 40.5103125 20.005625 40.520625 20.78125 40.53125 C23.96834924 39.76814173 25.00702892 38.60572003 27 36 C27.41782599 33.12305502 27.60476278 30.61293004 27.609375 27.734375 C27.62591125 26.94097717 27.64244751 26.14757935 27.65948486 25.33013916 C27.70795616 22.80334731 27.72933287 20.27715719 27.75 17.75 C27.77816057 16.03382391 27.80808812 14.31767584 27.83984375 12.6015625 C27.91371436 8.40109122 27.96329387 4.2009538 28 0 C30.97 0 33.94 0 37 0 C37.09945752 5.12282759 37.17174409 10.24508354 37.21972656 15.36865234 C37.23974522 17.10866089 37.26696886 18.84860299 37.30175781 20.58837891 C37.35070952 23.10075346 37.37306587 25.61223275 37.390625 28.125 C37.41127014 28.89303955 37.43191528 29.6610791 37.45318604 30.45239258 C37.45546665 36.03960155 36.16004127 40.34831316 33 45 C26.79301339 49.81041462 19.55219694 49.54740756 12 49 C6.70194535 47.2660912 4.19967227 44.38812197 1 40 C-0.27385127 36.1784462 -0.12353188 32.5931553 -0.09765625 28.61328125 C-0.0962413 27.79627243 -0.09482635 26.97926361 -0.09336853 26.13749695 C-0.08777294 23.52912732 -0.07522129 20.92084366 -0.0625 18.3125 C-0.05748443 16.54362103 -0.05292162 14.77474072 -0.04882812 13.00585938 C-0.03780496 8.67053981 -0.02054338 4.33528448 0 0 Z " fill="#FF0303" transform="translate(1231,417)"/>
<path d="M0 0 C2.97 0 5.94 0 9 0 C9.01401855 1.60439941 9.01401855 1.60439941 9.02832031 3.24121094 C9.06823512 7.2149397 9.13399721 11.18789544 9.20751953 15.16113281 C9.23572067 16.87978169 9.25693954 18.59856005 9.27099609 20.31738281 C9.29243833 22.79038747 9.33909156 25.26183675 9.390625 27.734375 C9.39185364 28.50118591 9.39308228 29.26799683 9.39434814 30.05804443 C9.4915261 33.60856378 9.71269583 35.62436273 11.89941406 38.48339844 C14.31492755 40.22737447 15.54585266 40.54046777 18.5 40.5 C19.2528125 40.5103125 20.005625 40.520625 20.78125 40.53125 C23.96834924 39.76814173 25.00702892 38.60572003 27 36 C27.41782599 33.12305502 27.60476278 30.61293004 27.609375 27.734375 C27.62591125 26.94097717 27.64244751 26.14757935 27.65948486 25.33013916 C27.70795616 22.80334731 27.72933287 20.27715719 27.75 17.75 C27.77816057 16.03382391 27.80808812 14.31767584 27.83984375 12.6015625 C27.91371436 8.40109122 27.96329387 4.2009538 28 0 C30.97 0 33.94 0 37 0 C37.09945752 5.12282759 37.17174409 10.24508354 37.21972656 15.36865234 C37.23974522 17.10866089 37.26696886 18.84860299 37.30175781 20.58837891 C37.35070952 23.10075346 37.37306587 25.61223275 37.390625 28.125 C37.41127014 28.89303955 37.43191528 29.6610791 37.45318604 30.45239258 C37.45546665 36.03960155 36.16004127 40.34831316 33 45 C26.79301339 49.81041462 19.55219694 49.54740756 12 49 C6.70194535 47.2660912 4.19967227 44.38812197 1 40 C-0.27385127 36.1784462 -0.12353188 32.5931553 -0.09765625 28.61328125 C-0.0962413 27.79627243 -0.09482635 26.97926361 -0.09336853 26.13749695 C-0.08777294 23.52912732 -0.07522129 20.92084366 -0.0625 18.3125 C-0.05748443 16.54362103 -0.05292162 14.77474072 -0.04882812 13.00585938 C-0.03780496 8.67053981 -0.02054338 4.33528448 0 0 Z " fill="#FF0303" transform="translate(1085,417)"/>
<path d="M0 0 C3.3 0 6.6 0 10 0 C13.63 10.89 17.26 21.78 21 33 C23.16947229 29.74579156 24.16084987 26.85741772 25.3828125 23.14453125 C25.60194305 22.48289474 25.82107361 21.82125824 26.04684448 21.13957214 C26.74380979 19.03192179 27.43447773 16.92226898 28.125 14.8125 C28.59724213 13.38072272 29.06989367 11.9490804 29.54296875 10.51757812 C30.70006236 7.01327077 31.85151826 3.50714052 33 0 C36.3 0 39.6 0 43 0 C37.50832065 16.06627765 31.97745379 32.10630665 26 48 C22.7 48 19.4 48 16 48 C14.04053524 42.28991969 12.0834152 36.57904307 10.12841797 30.86743164 C9.46368999 28.9264583 8.79833347 26.98570009 8.13232422 25.04516602 C7.17247927 22.24812905 6.21493332 19.45031389 5.2578125 16.65234375 C4.96190216 15.7916478 4.66599182 14.93095184 4.3611145 14.04417419 C2.77269296 9.39285769 1.30299571 4.73943718 0 0 Z " fill="#FF0404" transform="translate(955,417)"/>
<path d="M0 0 C3.54055663 2.49448308 5.51071234 4.82754599 6.75 8.9375 C7.49568114 15.66538715 7.84409606 22.23500906 3.75 27.9375 C0.37869382 31.83557277 -1.83554538 32.77248029 -7 33.375 C-11.39723027 33.32632217 -13.61519497 31.60882453 -16.8046875 28.73828125 C-21.40980879 23.00054905 -20.94662866 15.9209873 -20.25 8.9375 C-19.03905422 5.08865612 -17.07210872 2.64542695 -14 0 C-9.02765843 -1.92113197 -4.93544845 -1.61351199 0 0 Z " fill="#FFFBFB" transform="translate(847.25,425.0625)"/>
<path d="M0 0 C2.97 0 5.94 0 9 0 C9 13.2 9 26.4 9 40 C16.92 40 24.84 40 33 40 C33 42.64 33 45.28 33 48 C22.11 48 11.22 48 0 48 C0 32.16 0 16.32 0 0 Z " fill="#FF0000" transform="translate(1381,417)"/>
<path d="M0 0 C2.75105422 -0.10812003 5.49785087 -0.18734945 8.25 -0.25 C9.02730469 -0.28351563 9.80460938 -0.31703125 10.60546875 -0.3515625 C16.38003101 -0.45027297 16.38003101 -0.45027297 19.51171875 1.82421875 C21 4 21 4 21.5625 7.0625 C21 10 21 10 18.984375 11.671875 C15.17040206 13.3691928 11.77302075 13.3298908 7.6875 13.1875 C6.94693359 13.17396484 6.20636719 13.16042969 5.44335938 13.14648438 C3.62858925 13.11135979 1.81419712 13.05755972 0 13 C0 8.71 0 4.42 0 0 Z " fill="#FFFBFB" transform="translate(882,444)"/>
<path d="M0 0 C2.75105422 -0.10812003 5.49785087 -0.18734945 8.25 -0.25 C9.02730469 -0.28351563 9.80460938 -0.31703125 10.60546875 -0.3515625 C16.38003101 -0.45027297 16.38003101 -0.45027297 19.51171875 1.82421875 C21 4 21 4 21.5625 7.0625 C21 10 21 10 18.984375 11.671875 C15.17040206 13.3691928 11.77302075 13.3298908 7.6875 13.1875 C6.94693359 13.17396484 6.20636719 13.16042969 5.44335938 13.14648438 C3.62858925 13.11135979 1.81419712 13.05755972 0 13 C0 8.71 0 4.42 0 0 Z " fill="#FFFBFB" transform="translate(779,444)"/>
<path d="M0 0 C2.58396679 -0.08112454 5.16537568 -0.14054748 7.75 -0.1875 C8.47960938 -0.21263672 9.20921875 -0.23777344 9.9609375 -0.26367188 C13.22062158 -0.30812211 15.57930304 -0.22423942 18.484375 1.32421875 C20 3 20 3 20.5 6 C20 9 20 9 18.484375 10.67578125 C14.96088711 12.55386678 11.63347622 12.32129468 7.75 12.1875 C6.63238281 12.16719727 6.63238281 12.16719727 5.4921875 12.14648438 C3.66114584 12.11127204 1.83047831 12.05746851 0 12 C0 8.04 0 4.08 0 0 Z " fill="#FFFCFC" transform="translate(1482,425)"/>
<path d="M0 0 C2.60478883 -0.0809313 5.20706653 -0.14045434 7.8125 -0.1875 C8.55048828 -0.21263672 9.28847656 -0.23777344 10.04882812 -0.26367188 C15.50554909 -0.33774501 15.50554909 -0.33774501 17.984375 1.35546875 C19.46577782 3.75420178 19.48281869 5.24103603 19 8 C16.47385068 10.69242751 15.05845301 10.9953362 11.328125 11.29296875 C9.96843965 11.27316751 8.6089066 11.23759202 7.25 11.1875 C6.55261719 11.17396484 5.85523438 11.16042969 5.13671875 11.14648438 C3.42414459 11.1112945 1.71197059 11.05749155 0 11 C0 7.37 0 3.74 0 0 Z " fill="#FFFCFC" transform="translate(882,425)"/>
<path d="M0 0 C2.60478883 -0.0809313 5.20706653 -0.14045434 7.8125 -0.1875 C8.55048828 -0.21263672 9.28847656 -0.23777344 10.04882812 -0.26367188 C15.50554909 -0.33774501 15.50554909 -0.33774501 17.984375 1.35546875 C19.46577782 3.75420178 19.48281869 5.24103603 19 8 C16.47385068 10.69242751 15.05845301 10.9953362 11.328125 11.29296875 C9.96843965 11.27316751 8.6089066 11.23759202 7.25 11.1875 C6.55261719 11.17396484 5.85523438 11.16042969 5.13671875 11.14648438 C3.42414459 11.1112945 1.71197059 11.05749155 0 11 C0 7.37 0 3.74 0 0 Z " fill="#FFFCFC" transform="translate(779,425)"/>
<path d="M0 0 C2.90026063 1.45013031 3.04954396 3.30520627 4.125 6.3125 C4.47820312 7.27800781 4.83140625 8.24351562 5.1953125 9.23828125 C6 12 6 12 6 16 C2.37 16 -1.26 16 -5 16 C-3.85388265 10.26941324 -2.47605477 5.28975338 0 0 Z " fill="#FFF1F1" transform="translate(1440,430)"/>
<path d="M0 0 C2.90026063 1.45013031 3.04954396 3.30520627 4.125 6.3125 C4.47820312 7.27800781 4.83140625 8.24351562 5.1953125 9.23828125 C6 12 6 12 6 16 C2.37 16 -1.26 16 -5 16 C-3.85388265 10.26941324 -2.47605477 5.28975338 0 0 Z " fill="#FFF1F1" transform="translate(1348,430)"/>
<path d="M0 0 C2.90026063 1.45013031 3.04954396 3.30520627 4.125 6.3125 C4.47820313 7.27800781 4.83140625 8.24351562 5.1953125 9.23828125 C6 12 6 12 6 16 C2.37 16 -1.26 16 -5 16 C-3.85388265 10.26941324 -2.47605477 5.28975338 0 0 Z " fill="#FFF1F1" transform="translate(1018,430)"/>
<path d="M0 0 C2.90026063 1.45013031 3.04954396 3.30520627 4.125 6.3125 C4.47820313 7.27800781 4.83140625 8.24351562 5.1953125 9.23828125 C6 12 6 12 6 16 C2.37 16 -1.26 16 -5 16 C-3.85388265 10.26941324 -2.47605477 5.28975338 0 0 Z " fill="#FFF1F1" transform="translate(691,430)"/>
</svg>
